<?xml version="1.0" standalone="no"?>
<!DOCTYPE svg PUBLIC "-//W3C//DTD SVG 20010904//EN"
 "http://www.w3.org/TR/2001/REC-SVG-20010904/DTD/svg10.dtd">
<svg version="1.0" xmlns="http://www.w3.org/2000/svg"
 width="256.000000pt" height="256.000000pt" viewBox="0 0 256.000000 256.000000"
 preserveAspectRatio="xMidYMid meet">

<g transform="translate(0.000000,256.000000) scale(0.100000,-0.100000)"
fill="#000000" stroke="none">
<path d="M0 1280 l0 -1280 1280 0 1280 0 0 1280 0 1280 -1280 0 -1280 0 0
-1280z m2004 1118 c9 -36 5 -1148 -5 -1313 -10 -166 -22 -269 -37 -330 -25
-96 -34 -127 -52 -170 -5 -11 -14 -35 -22 -52 -7 -18 -16 -33 -20 -33 -5 0 -8
-7 -8 -15 0 -20 -144 -165 -164 -165 -8 0 -16 -3 -18 -7 -5 -13 -88 -53 -108
-53 -11 0 -21 -4 -24 -9 -6 -9 -25 -14 -126 -32 -199 -35 -429 -44 -590 -21
-228 32 -257 38 -287 67 -23 21 -23 24 -21 196 l3 174 315 7 c325 7 420 13
420 29 0 5 7 9 15 9 40 0 145 98 145 136 0 13 4 25 9 28 9 6 16 35 33 136 5
36 12 273 14 528 l5 462 -270 0 c-232 0 -272 2 -285 16 -13 13 -16 46 -16 202
0 103 3 197 6 210 l6 22 538 0 538 0 6 -22z"/>
</g>
</svg>
